<svg viewBox="0 0 260 120" xmlns="http://www.w3.org/2000/svg" role="img" aria-label="The Serendipity Engine mark: many engineered touches resolving into one rising moment">
<path d="M14.0 92.0 Q 119.0 86.0 224.0 36.0" fill="none" stroke="#175477" stroke-width="1" opacity="0.14"/>
<path d="M28.0 96.9 Q 126.0 90.9 224.0 36.0" fill="none" stroke="#175477" stroke-width="1" opacity="0.14"/>
<path d="M42.0 74.3 Q 133.0 68.3 224.0 36.0" fill="none" stroke="#175477" stroke-width="1" opacity="0.14"/>
<path d="M56.0 86.1 Q 140.0 80.1 224.0 36.0" fill="none" stroke="#175477" stroke-width="1" opacity="0.14"/>
<path d="M70.0 78.8 Q 147.0 72.8 224.0 36.0" fill="none" stroke="#175477" stroke-width="1" opacity="0.14"/>
<path d="M84.0 67.4 Q 154.0 61.400000000000006 224.0 36.0" fill="none" stroke="#175477" stroke-width="1" opacity="0.14"/>
<path d="M98.0 75.0 Q 161.0 69.0 224.0 36.0" fill="none" stroke="#175477" stroke-width="1" opacity="0.14"/>
<path d="M112.0 64.0 Q 168.0 58.0 224.0 36.0" fill="none" stroke="#175477" stroke-width="1" opacity="0.14"/>
<path d="M126.0 60.5 Q 175.0 54.5 224.0 36.0" fill="none" stroke="#175477" stroke-width="1" opacity="0.14"/>
<circle cx="14.0" cy="92.0" r="2.4" fill="#0B2233" opacity="0.3"/>
<circle cx="28.0" cy="96.9" r="2.4" fill="#0B2233" opacity="0.33"/>
<circle cx="42.0" cy="74.3" r="2.4" fill="#0B2233" opacity="0.36"/>
<circle cx="56.0" cy="86.1" r="2.4" fill="#0B2233" opacity="0.39"/>
<circle cx="70.0" cy="78.8" r="2.4" fill="#0B2233" opacity="0.42"/>
<circle cx="84.0" cy="67.4" r="2.4" fill="#0B2233" opacity="0.46"/>
<circle cx="98.0" cy="75.0" r="2.4" fill="#0B2233" opacity="0.49"/>
<circle cx="112.0" cy="64.0" r="2.4" fill="#0B2233" opacity="0.52"/>
<circle cx="126.0" cy="60.5" r="2.4" fill="#0B2233" opacity="0.55"/>
<circle cx="140.0" cy="61.3" r="2.4" fill="#0B2233" opacity="0.58"/>
<circle cx="154.0" cy="52.8" r="2.4" fill="#0B2233" opacity="0.61"/>
<circle cx="168.0" cy="51.2" r="2.4" fill="#0B2233" opacity="0.64"/>
<circle cx="182.0" cy="47.8" r="2.4" fill="#0B2233" opacity="0.68"/>
<circle cx="196.0" cy="43.0" r="2.4" fill="#0B2233" opacity="0.71"/>
<circle cx="210.0" cy="39.9" r="2.4" fill="#0B2233" opacity="0.74"/>
<path d="M126.0 60.5 L140.0 61.3 L154.0 52.8 L168.0 51.2 L182.0 47.8 L196.0 43.0 L210.0 39.9 L224.0 36.0" fill="none" stroke="#175477" stroke-width="2.4" stroke-linecap="round" stroke-linejoin="round"/>
<circle cx="224.0" cy="36.0" r="11" fill="#E9B44C" opacity="0.22"/>
<circle cx="224.0" cy="36.0" r="5.5" fill="#C8902F"/>
</svg>