<svg viewBox="0 0 620 300" xmlns="http://www.w3.org/2000/svg" role="img" aria-label="The Serendipity Engine: twenty-six engineered touches converging into one rising reply">
<path d="M70.0 70.0 Q 305.0 52.0 540 70" fill="none" stroke="#3AA6AE" stroke-width="1" opacity="0.1"/>
<circle cx="70.0" cy="70.0" r="2.6" fill="#F8F6F1" opacity="0.34"/>
<path d="M79.9 77.2 Q 310.0 59.2 540 70" fill="none" stroke="#3AA6AE" stroke-width="1" opacity="0.11"/>
<circle cx="79.9" cy="77.2" r="2.6" fill="#F8F6F1" opacity="0.36"/>
<path d="M67.4 84.4 Q 303.7 66.4 540 70" fill="none" stroke="#3AA6AE" stroke-width="1" opacity="0.11"/>
<circle cx="67.4" cy="84.4" r="2.6" fill="#F8F6F1" opacity="0.38"/>
<path d="M60.7 91.6 Q 300.4 73.6 540 70" fill="none" stroke="#3AA6AE" stroke-width="1" opacity="0.12"/>
<circle cx="60.7" cy="91.6" r="2.6" fill="#F8F6F1" opacity="0.39"/>
<path d="M74.9 98.8 Q 307.5 80.8 540 70" fill="none" stroke="#3AA6AE" stroke-width="1" opacity="0.13"/>
<circle cx="74.9" cy="98.8" r="2.6" fill="#F8F6F1" opacity="0.41"/>
<path d="M78.0 106.0 Q 309.0 88.0 540 70" fill="none" stroke="#3AA6AE" stroke-width="1" opacity="0.13"/>
<circle cx="78.0" cy="106.0" r="2.6" fill="#F8F6F1" opacity="0.43"/>
<path d="M63.0 113.2 Q 301.5 95.2 540 70" fill="none" stroke="#3AA6AE" stroke-width="1" opacity="0.14"/>
<circle cx="63.0" cy="113.2" r="2.6" fill="#F8F6F1" opacity="0.45"/>
<path d="M63.8 120.4 Q 301.9 102.4 540 70" fill="none" stroke="#3AA6AE" stroke-width="1" opacity="0.14"/>
<circle cx="63.8" cy="120.4" r="2.6" fill="#F8F6F1" opacity="0.47"/>
<path d="M78.6 127.6 Q 309.3 109.6 540 70" fill="none" stroke="#3AA6AE" stroke-width="1" opacity="0.15"/>
<circle cx="78.6" cy="127.6" r="2.6" fill="#F8F6F1" opacity="0.48"/>
<path d="M74.0 134.8 Q 307.0 116.8 540 70" fill="none" stroke="#3AA6AE" stroke-width="1" opacity="0.16"/>
<circle cx="74.0" cy="134.8" r="2.6" fill="#F8F6F1" opacity="0.5"/>
<path d="M60.4 142.0 Q 300.2 124.0 540 70" fill="none" stroke="#3AA6AE" stroke-width="1" opacity="0.16"/>
<circle cx="60.4" cy="142.0" r="2.6" fill="#F8F6F1" opacity="0.52"/>
<path d="M68.5 149.2 Q 304.3 131.2 540 70" fill="none" stroke="#3AA6AE" stroke-width="1" opacity="0.17"/>
<circle cx="68.5" cy="149.2" r="2.6" fill="#F8F6F1" opacity="0.54"/>
<path d="M80.0 156.4 Q 310.0 138.4 540 70" fill="none" stroke="#3AA6AE" stroke-width="1" opacity="0.18"/>
<circle cx="80.0" cy="156.4" r="2.6" fill="#F8F6F1" opacity="0.56"/>
<path d="M68.9 163.6 Q 304.5 145.6 540 70" fill="none" stroke="#3AA6AE" stroke-width="1" opacity="0.18"/>
<circle cx="68.9" cy="163.6" r="2.6" fill="#F8F6F1" opacity="0.57"/>
<path d="M60.3 170.8 Q 300.1 152.8 540 70" fill="none" stroke="#3AA6AE" stroke-width="1" opacity="0.19"/>
<circle cx="60.3" cy="170.8" r="2.6" fill="#F8F6F1" opacity="0.59"/>
<path d="M73.6 178.0 Q 306.8 160.0 540 70" fill="none" stroke="#3AA6AE" stroke-width="1" opacity="0.2"/>
<circle cx="73.6" cy="178.0" r="2.6" fill="#F8F6F1" opacity="0.61"/>
<path d="M78.8 185.2 Q 309.4 167.2 540 70" fill="none" stroke="#3AA6AE" stroke-width="1" opacity="0.2"/>
<circle cx="78.8" cy="185.2" r="2.6" fill="#F8F6F1" opacity="0.63"/>
<path d="M64.1 192.4 Q 302.1 174.4 540 70" fill="none" stroke="#3AA6AE" stroke-width="1" opacity="0.21"/>
<circle cx="64.1" cy="192.4" r="2.6" fill="#F8F6F1" opacity="0.65"/>
<path d="M62.7 199.6 Q 301.4 181.6 540 70" fill="none" stroke="#3AA6AE" stroke-width="1" opacity="0.22"/>
<circle cx="62.7" cy="199.6" r="2.6" fill="#F8F6F1" opacity="0.66"/>
<path d="M77.7 206.8 Q 308.9 188.8 540 70" fill="none" stroke="#3AA6AE" stroke-width="1" opacity="0.22"/>
<circle cx="77.7" cy="206.8" r="2.6" fill="#F8F6F1" opacity="0.68"/>
<path d="M75.3 214.0 Q 307.6 196.0 540 70" fill="none" stroke="#3AA6AE" stroke-width="1" opacity="0.23"/>
<circle cx="75.3" cy="214.0" r="2.6" fill="#F8F6F1" opacity="0.7"/>
<path d="M60.9 221.2 Q 300.5 203.2 540 70" fill="none" stroke="#3AA6AE" stroke-width="1" opacity="0.23"/>
<circle cx="60.9" cy="221.2" r="2.6" fill="#F8F6F1" opacity="0.72"/>
<path d="M67.1 228.4 Q 303.5 210.4 540 70" fill="none" stroke="#3AA6AE" stroke-width="1" opacity="0.24"/>
<circle cx="67.1" cy="228.4" r="2.6" fill="#F8F6F1" opacity="0.74"/>
<path d="M79.9 235.6 Q 309.9 217.6 540 70" fill="none" stroke="#3AA6AE" stroke-width="1" opacity="0.25"/>
<circle cx="79.9" cy="235.6" r="2.6" fill="#F8F6F1" opacity="0.75"/>
<path d="M70.4 242.8 Q 305.2 224.8 540 70" fill="none" stroke="#3AA6AE" stroke-width="1" opacity="0.25"/>
<circle cx="70.4" cy="242.8" r="2.6" fill="#F8F6F1" opacity="0.77"/>
<path d="M60.0 250.0 Q 300.0 232.0 540 70" fill="none" stroke="#3AA6AE" stroke-width="1" opacity="0.26"/>
<circle cx="60.0" cy="250.0" r="2.6" fill="#F8F6F1" opacity="0.79"/>
<path d="M80 250 L170 232 L280 206 L370 168 L450 120 L540 70" fill="none" stroke="#E9B44C" stroke-width="2.6" stroke-linecap="round" stroke-linejoin="round" opacity="0.92"/>
<circle cx="540" cy="70" r="16" fill="#E9B44C" opacity="0.20"/>
<circle cx="540" cy="70" r="7" fill="#E9B44C"/>
<text x="64" y="40" font-family="Archivo,sans-serif" font-size="11" font-weight="700" letter-spacing="1.5" fill="#3AA6AE">26 ENGINEERED TOUCHES</text>
<text x="540" y="40" text-anchor="middle" font-family="Archivo,sans-serif" font-size="11" font-weight="700" letter-spacing="1.5" fill="#E9B44C">ONE REPLY</text>
</svg>